<?xml version="1.0" encoding="utf-8"?>
<!-- Generator: Adobe Illustrator 19.2.0, SVG Export Plug-In . SVG Version: 6.00 Build 0)  -->
<svg version="1.1" id="Layer_1" xmlns="http://www.w3.org/2000/svg" xmlns:xlink="http://www.w3.org/1999/xlink" x="0px" y="0px"
	 viewBox="0 0 544 271" style="enable-background:new 0 0 544 271;" xml:space="preserve">
<style type="text/css">
	.st0{fill-rule:evenodd;clip-rule:evenodd;fill:#FFFFFF;}
</style>
<g>
	<path class="st0" d="M543.3,127.5l-9.3,16.4c-5.2-4.8-12-7.3-20.7-7.3c-8.3,0-14.8,2.8-19.7,8.3c-4.8,5.5-7.2,13.2-7.2,22.9
		c0,19.7,9.4,29.5,28.1,29.5c8.1,0,15.2-2.7,21.5-8l8.1,17.2c-6.3,4-11.9,6.5-16.7,7.5c-4.7,1-10.3,1.6-16.8,1.6
		c-14.5,0-26-4.3-34.3-12.7c-8.4-8.4-12.6-20.2-12.6-35.2c0-14.7,4.7-26.8,13.8-35.8c9.2-9.2,21.7-13.7,37.5-13.7
		C525.8,118.4,535.2,121.4,543.3,127.5L543.3,127.5z"/>
	<path class="st0" d="M391.7,157.2h46.1c-1.5-13.8-9-20.6-22.7-20.6C402.5,136.6,394.8,143.5,391.7,157.2L391.7,157.2z M457.9,173.7
		h-67c0.4,7.4,3,13.2,7.8,17.4c4.7,4.2,11.1,6.2,19,6.2c10,0,17.6-2.6,22.8-7.8l8.5,16.7c-7.7,6.2-19.2,9.4-34.5,9.4
		c-14.3,0-25.6-4.2-33.9-12.6c-8.3-8.3-12.6-20-12.6-35.1c0-14.7,4.6-26.8,13.8-35.8c9.1-9.2,20.1-13.8,32.9-13.8
		c13.6,0,24.5,4,32.7,12.1c8.2,8.1,12.4,18.4,12.4,31C459.8,164.2,459.1,168.2,457.9,173.7L457.9,173.7z"/>
	<path class="st0" d="M315.8,137.7L315.8,137.7v47.4c0,9.8,2.5,17.3,7.5,22.6c5,5.3,12.1,8,21.5,8c9.4,0,16.6-1,21.7-2.7v-20.2
		c-4.5,2.9-9.4,4.3-14.7,4.3c-5.3,0-8.9-1.4-11-4.2c-2.2-2.8-3.2-7.5-3.2-14.3v-41h25.8v-17.6h-25.8V92.9l-21.8,8.1v19V137.7z"/>
	<path class="st0" d="M285.5,169.7c-3.7-0.7-6.5-1.1-8.4-1.1c-17.2,0-25.9,5.7-25.9,17.1c0,8.4,4.8,12.6,14.6,12.6
		c13.2,0,19.7-6.6,19.7-19.7V169.7L285.5,169.7z M287.6,204.5c-2,3.3-5.5,5.9-10.4,8.1c-4.9,2-10.1,3.1-15.5,3.1
		c-10,0-18-2.6-23.8-7.6c-5.7-5.1-8.7-12.2-8.7-21.5c0-10.9,4.1-19.4,12.2-25.5c8.1-6.1,19.7-9.2,34.7-9.2c2.6,0,5.6,0.4,9.1,1.3
		c0-11-6.9-16.5-20.9-16.5c-8.2,0-15.2,1.4-20.7,4.2c3.3-7.4,7-14.4,10.5-21.6c3.7-0.6,7.4-0.9,11.7-0.9c14.3,0,24.8,3.2,31.4,9.7
		c6.6,6.6,9.9,18.9,9.9,37.1v20c0,12.6,2.5,20.3,7.5,23.5c-1.8,3.2-3.8,5.1-6,5.9c-2.3,0.7-4.8,1.1-7.6,1.1c-3.2,0-5.9-1.2-8.4-3.5
		C290.2,209.8,288.5,207.3,287.6,204.5L287.6,204.5z"/>
	<path class="st0" d="M238.4,140.5c-4-2.6-8.2-3.9-12.9-3.9c-5.1,0-9.6,2.3-13.5,6.9c-4,4.6-6,10.2-6,16.9v53.4h-21.8v-93.8H206v8.6
		c6.1-6.9,14.3-10.3,24.4-10.3c7.5,0,13.2,1.1,17.2,3.4L238.4,140.5L238.4,140.5z"/>
	<path class="st0" d="M126,137.7L126,137.7v47.4c0,9.8,2.5,17.3,7.5,22.6c5,5.3,12.2,8,21.6,8c9.4,0,16.6-1,21.7-2.7v-20.2
		c-4.5,2.9-9.4,4.3-14.7,4.3c-5.3,0-8.9-1.4-11-4.2c-2.2-2.8-3.2-7.5-3.2-14.3v-41h25.8v-17.6h-25.8V92.9L126,101v19V137.7z"/>
	<path class="st0" d="M92.5,85.1l22-5.2v105.4c0,11.6,3.4,18.4,10.3,20.7c-3.4,6.4-9.2,9.7-17.3,9.7c-10,0-15-6.9-15-20.7V85.1
		L92.5,85.1z"/>
	<path class="st0" d="M60.3,213.9v-7.9c-3,2.6-7.3,4.8-12.7,6.8c-5.5,1.8-10.4,2.9-15,2.9C10.8,215.7,0,204.1,0,181v-60.9h21.8v59.2
		c0,11.9,5.5,18,16.3,18c4.9,0,9.5-1.3,13.8-3.9c4.2-2.5,7.1-5.5,8.5-8.9v-64.4h21.9v93.9H60.3L60.3,213.9z"/>
	<path class="st0" d="M500.1,253.9l4.2-0.7c0.3,1.7,1,3,2,3.9c1,0.9,2.6,1.4,4.5,1.4c2,0,3.5-0.4,4.4-1.2c1-0.8,1.4-1.7,1.4-2.9
		c0-1-0.4-1.6-1.3-2.2c-0.5-0.3-2-0.9-4.3-1.4c-3.1-0.9-5.3-1.5-6.5-2.1c-1.2-0.6-2.1-1.4-2.8-2.4c-0.6-1-0.9-2.1-0.9-3.4
		c0-1.1,0.3-2.2,0.8-3.1c0.4-1,1.2-1.6,2.1-2.2c0.6-0.5,1.6-1,2.7-1.2c1.1-0.3,2.3-0.5,3.7-0.5c1.9,0,3.6,0.3,5.2,0.9
		c1.5,0.5,2.5,1.3,3.3,2.2c0.7,1,1.1,2.2,1.5,3.9l-4.2,0.6c-0.3-1.3-0.8-2.3-1.7-3c-0.9-0.8-2.2-1.1-3.8-1.1c-1.9,0-3.4,0.3-4.2,1
		c-0.9,0.7-1.3,1.5-1.3,2.3c0,0.5,0.2,1,0.5,1.5c0.3,0.4,1,0.8,1.6,1.1c0.4,0.2,1.7,0.5,3.8,1c2.9,0.9,5.1,1.5,6.2,2
		c1.2,0.5,2.2,1.3,2.9,2.3c0.7,1,1,2.2,1,3.6c0,1.5-0.4,2.8-1.3,4.1c-0.8,1.2-2,2.2-3.5,2.9c-1.6,0.7-3.4,1-5.3,1
		c-3.3,0-5.8-0.7-7.5-2C501.6,258.5,500.5,256.5,500.1,253.9L500.1,253.9z M499.3,257.5c-0.8,0.2-1.4,0.2-1.8,0.2
		c-0.7,0-1.1-0.1-1.5-0.3c-0.3-0.3-0.6-0.5-0.8-0.9c-0.1-0.3-0.2-1.1-0.2-2.3v-14.6h4.2v-3.3h-4.2v-8.7l-4.2,2.5v6.2h-3.1v3.3h3.1
		V254c0,2.5,0.2,4.2,0.5,5c0.3,0.8,1,1.4,1.8,1.9c0.8,0.5,2,0.7,3.6,0.7c1,0,2-0.1,3.2-0.3L499.3,257.5L499.3,257.5z M483.9,252.1
		l4.2,0.6c-0.5,2.9-1.6,5.1-3.5,6.8c-1.9,1.6-4.2,2.4-6.9,2.4c-3.5,0-6.2-1.1-8.3-3.4c-2.1-2.3-3.1-5.5-3.1-9.7c0-2.7,0.4-5,1.4-7.1
		c0.9-2,2.3-3.5,4.1-4.5c1.8-1,3.8-1.5,6-1.5c2.8,0,5,0.7,6.8,2.1c1.7,1.3,2.8,3.2,3.3,5.8l-4.2,0.6c-0.3-1.7-1-2.9-2.1-3.8
		c-1-0.9-2.2-1.3-3.6-1.3c-2.2,0-3.9,0.8-5.2,2.3c-1.4,1.6-2,4-2,7.3c0,3.4,0.6,5.8,1.9,7.4c1.3,1.6,2.9,2.3,5,2.3
		c1.7,0,3.1-0.5,4.2-1.6C482.9,255.8,483.6,254.3,483.9,252.1L483.9,252.1z M445.5,246.3h14c-0.2-2.1-0.7-3.6-1.6-4.7
		c-1.3-1.6-3.1-2.5-5.2-2.5c-2,0-3.6,0.7-4.9,2C446.4,242.4,445.7,244.2,445.5,246.3L445.5,246.3z M459.5,253.2l4.4,0.5
		c-0.7,2.6-2,4.6-3.8,6c-1.9,1.5-4.3,2.2-7.2,2.2c-3.7,0-6.6-1.1-8.7-3.4c-2.2-2.3-3.3-5.5-3.3-9.5c0-4.2,1.1-7.5,3.3-9.9
		c2.2-2.2,5-3.4,8.5-3.4c3.4,0,6.1,1.1,8.2,3.3c2.2,2.3,3.2,5.5,3.2,9.7c0,0.3,0,0.6,0,1.1h-18.8c0.2,2.8,1,4.8,2.3,6.3
		c1.5,1.5,3.2,2.2,5.3,2.2c1.6,0,2.9-0.4,4-1.3C458,256.4,458.9,255.1,459.5,253.2L459.5,253.2z M420.8,261.3v-21.7H417v-3.3h3.8
		v-2.7c0-1.6,0.2-2.9,0.4-3.7c0.4-1.1,1.1-2,2.2-2.7c1-0.7,2.5-1,4.3-1c1.2,0,2.5,0.2,4,0.4l-0.6,3.7c-0.9-0.2-1.7-0.3-2.5-0.3
		c-1.3,0-2.3,0.3-2.8,0.9c-0.5,0.5-0.8,1.6-0.8,3.1v2.2h2.9h2h1.7v-2.7c0-1.6,0.2-2.9,0.4-3.7c0.4-1.1,1.1-2,2.2-2.7
		c1-0.7,2.5-1,4.4-1c1.1,0,2.5,0.2,3.9,0.4l-0.6,3.7c-0.9-0.2-1.7-0.3-2.5-0.3c-1.3,0-2.2,0.3-2.8,0.9c-0.5,0.5-0.8,1.6-0.8,3.1v2.2
		h4.9v3.3h-4.9v21.7h-4.2v-21.7h-1.7h-2H425v21.7H420.8L420.8,261.3z M397.7,246.3h14c-0.2-2.1-0.7-3.6-1.6-4.7
		c-1.3-1.6-3.1-2.5-5.2-2.5c-2,0-3.6,0.7-4.9,2C398.6,242.4,397.9,244.2,397.7,246.3L397.7,246.3z M411.7,253.2l4.4,0.5
		c-0.7,2.6-2,4.6-3.8,6c-1.9,1.5-4.3,2.2-7.2,2.2c-3.7,0-6.6-1.1-8.7-3.4c-2.2-2.3-3.2-5.5-3.2-9.5c0-4.2,1-7.5,3.2-9.9
		c2.2-2.2,5-3.4,8.5-3.4c3.4,0,6.1,1.1,8.2,3.3c2.2,2.3,3.2,5.5,3.2,9.7c0,0.3,0,0.6,0,1.1h-18.8c0.2,2.8,1,4.8,2.3,6.3
		c1.5,1.5,3.2,2.2,5.3,2.2c1.6,0,2.9-0.4,4-1.3C410.2,256.4,411.1,255.1,411.7,253.2L411.7,253.2z"/>
	<path class="st0" d="M371.9,261.3v-34.5h4.2v34.5H371.9L371.9,261.3z M362.9,248.7c-1.6,0.6-3.8,1.1-6.9,1.6
		c-1.7,0.3-3,0.6-3.7,0.9c-0.7,0.3-1.3,0.8-1.6,1.4c-0.4,0.6-0.6,1.3-0.6,2.1c0,1.1,0.4,2.1,1.3,2.8c0.9,0.8,2.1,1.2,3.7,1.2
		c1.6,0,3.1-0.4,4.4-1.1c1.2-0.7,2.2-1.7,2.8-2.9c0.5-1,0.7-2.3,0.7-4.2V248.7L362.9,248.7z M363.3,258.3c-1.6,1.3-3,2.2-4.5,2.9
		c-1.5,0.5-3,0.8-4.8,0.8c-2.7,0-4.8-0.7-6.3-2c-1.5-1.4-2.2-3.1-2.2-5.2c0-1.2,0.3-2.3,0.9-3.4c0.5-1,1.3-1.8,2.2-2.4
		c1-0.6,2-1.1,3.1-1.4c0.8-0.3,2.1-0.4,3.7-0.7c3.5-0.4,6-0.9,7.6-1.5c0-0.5,0-1,0-1c0-1.8-0.3-3-1.1-3.7c-1.1-1-2.8-1.5-4.8-1.5
		c-2.1,0-3.5,0.3-4.5,1.1c-1,0.7-1.6,1.9-2.1,3.7l-4.2-0.6c0.3-1.7,1-3.2,1.8-4.3c0.9-1,2.2-1.8,3.8-2.4c1.6-0.6,3.6-0.9,5.7-0.9
		c2.1,0,3.8,0.3,5.2,0.7c1.3,0.5,2.3,1.2,2.9,1.9c0.6,0.7,1.1,1.6,1.3,2.9c0.1,0.7,0.2,2,0.2,3.9v5.7c0,4,0.1,6.5,0.3,7.5
		c0.2,1,0.5,2,1.1,2.9h-4.4C363.7,260.4,363.5,259.4,363.3,258.3L363.3,258.3z M337.9,261.3v-25h4.2v25H337.9L337.9,261.3z
		 M337.9,231.7v-4.9h4.2v4.9H337.9L337.9,231.7z M331.8,252.1l4.2,0.6c-0.5,2.9-1.6,5.1-3.6,6.8c-1.9,1.6-4.2,2.4-6.9,2.4
		c-3.5,0-6.2-1.1-8.3-3.4c-2.1-2.3-3.1-5.5-3.1-9.7c0-2.7,0.4-5,1.3-7.1c1-2,2.3-3.5,4.2-4.5c1.8-1,3.8-1.5,6-1.5
		c2.8,0,4.9,0.7,6.7,2.1c1.7,1.3,2.9,3.2,3.4,5.8l-4.2,0.6c-0.3-1.7-1-2.9-2.1-3.8c-1-0.9-2.3-1.3-3.6-1.3c-2.2,0-3.9,0.8-5.2,2.3
		c-1.4,1.6-2.1,4-2.1,7.3c0,3.4,0.7,5.8,2,7.4c1.3,1.6,2.9,2.3,5,2.3c1.7,0,3.1-0.5,4.2-1.6C330.8,255.8,331.5,254.3,331.8,252.1
		L331.8,252.1z M293.4,246.3h14c-0.2-2.1-0.7-3.6-1.6-4.7c-1.3-1.6-3.1-2.5-5.3-2.5c-1.9,0-3.5,0.7-4.9,2
		C294.3,242.4,293.6,244.2,293.4,246.3L293.4,246.3z M307.4,253.2l4.4,0.5c-0.7,2.6-2,4.6-3.8,6c-1.9,1.5-4.3,2.2-7.2,2.2
		c-3.7,0-6.7-1.1-8.7-3.4c-2.2-2.3-3.3-5.5-3.3-9.5c0-4.2,1.1-7.5,3.3-9.9c2.2-2.2,5-3.4,8.5-3.4c3.4,0,6.1,1.1,8.2,3.3
		c2.2,2.3,3.2,5.5,3.2,9.7c0,0.3,0,0.6,0,1.1h-18.8c0.2,2.8,1,4.8,2.3,6.3c1.4,1.5,3.2,2.2,5.3,2.2c1.6,0,2.9-0.4,4-1.3
		C305.9,256.4,306.8,255.1,307.4,253.2L307.4,253.2z M268.8,248.9c0,3.2,0.7,5.6,2,7.2c1.3,1.6,2.9,2.3,4.8,2.3
		c1.9,0,3.5-0.9,4.8-2.4c1.3-1.6,2-4.1,2-7.4c0-3.2-0.6-5.6-2-7.2c-1.3-1.6-2.9-2.4-4.7-2.4c-1.8,0-3.5,0.9-4.8,2.6
		C269.5,243.2,268.8,245.7,268.8,248.9L268.8,248.9z M265,271v-34.7h3.8v3.2c1-1.2,2-2.2,3.1-2.8c1.1-0.7,2.6-1,4.2-1
		c2.2,0,4.1,0.5,5.7,1.6c1.6,1,2.9,2.6,3.7,4.6c0.9,2,1.3,4.2,1.3,6.6c0,2.6-0.5,4.9-1.5,6.9c-0.9,2.1-2.3,3.6-4,4.8
		c-1.7,1.1-3.6,1.6-5.5,1.6c-1.4,0-2.7-0.3-3.8-0.9c-1.1-0.6-2.1-1.4-2.8-2.3V271H265L265,271z M240.8,253.9l4.2-0.7
		c0.2,1.7,0.9,3,2,3.9c1,0.9,2.5,1.4,4.5,1.4c2,0,3.4-0.4,4.3-1.2c1-0.8,1.5-1.7,1.5-2.9c0-1-0.4-1.6-1.3-2.2
		c-0.6-0.3-2-0.9-4.3-1.4c-3.1-0.9-5.3-1.5-6.5-2.1c-1.2-0.6-2.2-1.4-2.8-2.4c-0.6-1-1-2.1-1-3.4c0-1.1,0.3-2.2,0.8-3.1
		c0.5-1,1.2-1.6,2.1-2.2c0.7-0.5,1.6-1,2.8-1.2c1.1-0.3,2.3-0.5,3.6-0.5c2,0,3.7,0.3,5.2,0.9c1.5,0.5,2.6,1.3,3.3,2.2
		c0.7,1,1.2,2.2,1.5,3.9l-4.2,0.6c-0.2-1.3-0.7-2.3-1.6-3c-0.9-0.8-2.2-1.1-3.8-1.1c-2,0-3.4,0.3-4.2,1c-0.8,0.7-1.2,1.5-1.2,2.3
		c0,0.5,0.2,1,0.5,1.5c0.3,0.4,0.9,0.8,1.6,1.1c0.4,0.2,1.6,0.5,3.7,1c3,0.9,5.1,1.5,6.3,2c1.2,0.5,2.2,1.3,2.8,2.3
		c0.7,1,1,2.2,1,3.6c0,1.5-0.4,2.8-1.2,4.1c-0.9,1.2-2.1,2.2-3.6,2.9c-1.6,0.7-3.3,1-5.3,1c-3.3,0-5.7-0.7-7.4-2
		C242.3,258.5,241.3,256.5,240.8,253.9L240.8,253.9z"/>
	<path class="st0" d="M531.3,261.8v-6.6h-2.5v-1.1h6.3v1.1h-2.5v6.6H531.3L531.3,261.8z M535.9,261.8v-7.7h1.9l1.9,6.1l1.9-6.1h1.9
		v7.7h-1.2v-6.5l-2,6.5h-1.1l-2.1-6.6v6.6H535.9L535.9,261.8z"/>
	<polygon class="st0" points="191.1,0 191,41.9 230.8,55 190.9,67.9 190.8,109.8 166.3,75.8 126.4,88.7 151.1,54.8 126.5,20.9 
		166.3,33.9 191.1,0 	"/>
	<polygon class="st0" points="260.3,18.5 260.2,46.8 287,55.6 260.2,64.2 260.1,92.5 243.6,69.6 216.7,78.3 233.3,55.5 216.8,32.6 
		243.6,41.4 260.3,18.5 	"/>
	<polygon class="st0" points="300.2,62.6 300.2,83.7 320.3,90.3 300.2,96.8 300.1,117.9 287.8,100.8 267.6,107.3 280.1,90.2 
		267.7,73.1 287.8,79.7 300.2,62.6 	"/>
</g>
</svg>
